<svg width="121" height="75" viewBox="0 0 121 75" fill="none" xmlns="http://www.w3.org/2000/svg">
<g clip-path="url(#clip0_36_144)">
<g clip-path="url(#clip1_36_144)">
<g clip-path="url(#clip2_36_144)">
<g clip-path="url(#clip3_36_144)">
<g clip-path="url(#clip4_36_144)">
<g clip-path="url(#clip5_36_144)">
<g clip-path="url(#clip6_36_144)">
<g clip-path="url(#clip7_36_144)">
<g clip-path="url(#clip8_36_144)">
<g clip-path="url(#clip9_36_144)">
<path d="M34.772 28.7358H28.9396V40.3267H34.772C35.5707 40.3267 36.3223 40.1751 37.0267 39.8717C37.7311 39.5683 38.3468 39.1547 38.8737 38.6307C39.4007 38.1067 39.8167 37.4917 40.1218 36.7858C40.4268 36.0742 40.5794 35.3214 40.5794 34.5271C40.5794 33.7329 40.4268 32.9828 40.1218 32.2768C39.8167 31.5708 39.4007 30.9558 38.8737 30.4318C38.3468 29.9079 37.7311 29.4942 37.0267 29.1908C36.3223 28.8875 35.5707 28.7358 34.772 28.7358ZM28.9396 46.1015V51.9011H23.1156V22.9362H34.772C35.8425 22.9362 36.8714 23.0741 37.8587 23.3499C38.846 23.6256 39.7695 24.0172 40.6293 24.5247C41.489 25.0266 42.2766 25.6305 42.9922 26.3365C43.7021 27.048 44.3095 27.834 44.8143 28.6944C45.3245 29.5549 45.7184 30.476 45.9957 31.4577C46.273 32.445 46.4117 33.4681 46.4117 34.5271C46.4117 35.5254 46.2869 36.4962 46.0373 37.4393C45.7877 38.3825 45.4272 39.2788 44.9557 40.1282C44.4898 40.9721 43.9185 41.7525 43.2418 42.4695C42.5651 43.181 41.8079 43.7988 40.9704 44.3228L44.1986 51.9011H38.0001L35.4625 46.0602L28.9396 46.1015ZM65.5478 22.9362H72.2038L62.6358 51.9011H56.8117L47.2853 22.9362H53.9081L59.7154 42.2627L65.5478 22.9362ZM94.6513 43.8843L97.738 48.931C96.3846 50.0893 94.8676 50.9773 93.1869 51.595C91.5063 52.2183 89.7674 52.5299 87.9703 52.5299C86.5891 52.5299 85.2579 52.3507 83.9767 51.9921C82.6954 51.6336 81.4973 51.129 80.3824 50.4781C79.262 49.8218 78.2414 49.0358 77.3206 48.1202C76.3999 47.2046 75.6122 46.1925 74.9577 45.0839C74.2977 43.9753 73.7902 42.7839 73.4352 41.5098C73.0746 40.2357 72.8944 38.912 72.8944 37.5386C72.8944 36.1653 73.0746 34.8388 73.4352 33.5592C73.7902 32.2795 74.2977 31.0854 74.9577 29.9768C75.6122 28.8627 76.3999 27.8478 77.3206 26.9322C78.2414 26.0166 79.262 25.2334 80.3824 24.5826C81.4973 23.9317 82.6954 23.4271 83.9767 23.0686C85.2579 22.71 86.5891 22.5308 87.9703 22.5308C89.7674 22.5308 91.5063 22.8369 93.1869 23.4491C94.8676 24.0614 96.3846 24.9549 97.738 26.1297L94.6513 31.1764C93.7971 30.2608 92.7876 29.5576 91.6228 29.0667C90.458 28.5758 89.2405 28.3304 87.9703 28.3304C86.6834 28.3304 85.477 28.5731 84.3511 29.0585C83.2251 29.5438 82.2433 30.2002 81.4058 31.0275C80.5682 31.8548 79.9054 32.8311 79.4173 33.9563C78.9292 35.0814 78.6851 36.2756 78.6851 37.5386C78.6851 38.8072 78.9292 39.9958 79.4173 41.1044C79.9054 42.2131 80.5682 43.1866 81.4058 44.0249C82.2433 44.8578 83.2251 45.5169 84.3511 46.0022C85.477 46.4876 86.6834 46.7303 87.9703 46.7303C89.2405 46.7303 90.458 46.4849 91.6228 45.994C92.7876 45.5031 93.7971 44.7999 94.6513 43.8843Z" fill="#76ABAE"/>
</g>
</g>
</g>
</g>
</g>
</g>
</g>
<path d="M68.9093 20.7088V5.00284H3.4873V70.0579H68.9093V54.3519H66.1888V67.3524H6.20804V7.7083H66.1888V20.7088H68.9093Z" fill="#76ABAE"/>
</g>
</g>
</g>
<defs>
<clipPath id="clip0_36_144">
<rect width="121" height="75" fill="white"/>
</clipPath>
<clipPath id="clip1_36_144">
<rect width="121" height="75" fill="white" transform="translate(-0.0733032 0.030365)"/>
</clipPath>
<clipPath id="clip2_36_144">
<rect width="120.775" height="75.0607" fill="white" transform="translate(0.0391846)"/>
</clipPath>
<clipPath id="clip3_36_144">
<rect width="74.639" height="29.9991" fill="white" transform="translate(23.1072 22.5308)"/>
</clipPath>
<clipPath id="clip4_36_144">
<rect width="74.639" height="29.9991" fill="white" transform="translate(23.1072 22.5308)"/>
</clipPath>
<clipPath id="clip5_36_144">
<rect width="74.639" height="29.9991" fill="white" transform="translate(23.1072 22.5308)"/>
</clipPath>
<clipPath id="clip6_36_144">
<rect width="74.639" height="29.9991" fill="white" transform="translate(23.1072 22.5308)"/>
</clipPath>
<clipPath id="clip7_36_144">
<rect width="74.639" height="29.9991" fill="white" transform="translate(23.1072 22.5308)"/>
</clipPath>
<clipPath id="clip8_36_144">
<rect width="74.639" height="29.9991" fill="white" transform="translate(23.1072 22.5308)"/>
</clipPath>
<clipPath id="clip9_36_144">
<rect width="74.639" height="29.9991" fill="white" transform="translate(23.1072 22.5308)"/>
</clipPath>
</defs>
</svg>
