<svg width="18" height="18" viewBox="0 0 18 18" fill="none" xmlns="http://www.w3.org/2000/svg">
<path d="M16.875 5.625H1.125C0.503684 5.625 0 5.12132 0 4.5V2.25C0 1.62868 0.503684 1.125 1.125 1.125H16.875C17.4963 1.125 18 1.62868 18 2.25V4.5C18 5.12132 17.4963 5.625 16.875 5.625ZM15.1875 2.53125C14.7215 2.53125 14.3438 2.909 14.3438 3.375C14.3438 3.841 14.7215 4.21875 15.1875 4.21875C15.6535 4.21875 16.0312 3.841 16.0312 3.375C16.0312 2.909 15.6535 2.53125 15.1875 2.53125ZM12.9375 2.53125C12.4715 2.53125 12.0938 2.909 12.0938 3.375C12.0938 3.841 12.4715 4.21875 12.9375 4.21875C13.4035 4.21875 13.7812 3.841 13.7812 3.375C13.7812 2.909 13.4035 2.53125 12.9375 2.53125ZM16.875 11.25H1.125C0.503684 11.25 0 10.7463 0 10.125V7.875C0 7.25368 0.503684 6.75 1.125 6.75H16.875C17.4963 6.75 18 7.25368 18 7.875V10.125C18 10.7463 17.4963 11.25 16.875 11.25ZM15.1875 8.15625C14.7215 8.15625 14.3438 8.534 14.3438 9C14.3438 9.466 14.7215 9.84375 15.1875 9.84375C15.6535 9.84375 16.0312 9.466 16.0312 9C16.0312 8.534 15.6535 8.15625 15.1875 8.15625ZM12.9375 8.15625C12.4715 8.15625 12.0938 8.534 12.0938 9C12.0938 9.466 12.4715 9.84375 12.9375 9.84375C13.4035 9.84375 13.7812 9.466 13.7812 9C13.7812 8.534 13.4035 8.15625 12.9375 8.15625ZM16.875 16.875H1.125C0.503684 16.875 0 16.3713 0 15.75V13.5C0 12.8787 0.503684 12.375 1.125 12.375H16.875C17.4963 12.375 18 12.8787 18 13.5V15.75C18 16.3713 17.4963 16.875 16.875 16.875ZM15.1875 13.7812C14.7215 13.7812 14.3438 14.159 14.3438 14.625C14.3438 15.091 14.7215 15.4688 15.1875 15.4688C15.6535 15.4688 16.0312 15.091 16.0312 14.625C16.0312 14.159 15.6535 13.7812 15.1875 13.7812ZM12.9375 13.7812C12.4715 13.7812 12.0938 14.159 12.0938 14.625C12.0938 15.091 12.4715 15.4688 12.9375 15.4688C13.4035 15.4688 13.7812 15.091 13.7812 14.625C13.7812 14.159 13.4035 13.7812 12.9375 13.7812Z" fill="#76ABAE"/>
</svg>
