<svg width="16" height="18" viewBox="0 0 16 18" fill="none" xmlns="http://www.w3.org/2000/svg">
<g clip-path="url(#clip0_45_39)">
<path d="M16 2.8125V4.5C16 6.05391 12.4179 7.3125 8 7.3125C3.58214 7.3125 0 6.05391 0 4.5V2.8125C0 1.25859 3.58214 0 8 0C12.4179 0 16 1.25859 16 2.8125ZM14.0429 7.54805C14.7857 7.28789 15.4679 6.95391 16 6.54258V10.125C16 11.6789 12.4179 12.9375 8 12.9375C3.58214 12.9375 0 11.6789 0 10.125V6.54258C0.532143 6.95742 1.21429 7.28789 1.95714 7.54805C3.56071 8.11055 5.69643 8.4375 8 8.4375C10.3036 8.4375 12.4393 8.11055 14.0429 7.54805ZM0 12.1676C0.532143 12.5824 1.21429 12.9129 1.95714 13.173C3.56071 13.7355 5.69643 14.0625 8 14.0625C10.3036 14.0625 12.4393 13.7355 14.0429 13.173C14.7857 12.9129 15.4679 12.5789 16 12.1676V15.1875C16 16.7414 12.4179 18 8 18C3.58214 18 0 16.7414 0 15.1875V12.1676Z" fill="#76ABAE"/>
</g>
<defs>
<clipPath id="clip0_45_39">
<rect width="16" height="18" fill="white"/>
</clipPath>
</defs>
</svg>
