<svg width="23" height="17" viewBox="0 0 23 17" fill="none" xmlns="http://www.w3.org/2000/svg">
<path d="M10.0231 16.2768L7.83107 15.7135C7.60109 15.6562 7.47172 15.443 7.5364 15.2393L12.4415 0.275685C12.5062 0.072012 12.7469 -0.0425542 12.9769 0.0147289L15.1689 0.578013C15.3989 0.635296 15.5283 0.848516 15.4636 1.05219L10.5585 16.0158C10.4902 16.2195 10.2531 16.3372 10.0231 16.2768ZM5.92653 12.7061L7.48969 11.2295C7.65499 11.0735 7.64421 10.8253 7.46094 10.6821L4.20526 8.14575L7.46094 5.60938C7.64421 5.46617 7.65858 5.21794 7.48969 5.06201L5.92653 3.58537C5.76482 3.43262 5.49172 3.42307 5.31564 3.56946L0.13745 7.86569C-0.0458167 8.01527 -0.0458167 8.27304 0.13745 8.42262L5.31564 12.722C5.49172 12.8684 5.76482 12.8621 5.92653 12.7061ZM17.6844 12.7252L22.8626 8.4258C23.0458 8.27622 23.0458 8.01845 22.8626 7.86888L17.6844 3.56628C17.5119 3.42307 17.2388 3.42944 17.0735 3.58219L15.5103 5.05882C15.345 5.21476 15.3558 5.46299 15.5391 5.6062L18.7947 8.14575L15.5391 10.6821C15.3558 10.8253 15.3414 11.0735 15.5103 11.2295L17.0735 12.7061C17.2352 12.8621 17.5083 12.8684 17.6844 12.7252Z" fill="#76ABAE"/>
</svg>
